<svg width="55" height="55" viewBox="0 0 55 55" fill="none" xmlns="http://www.w3.org/2000/svg">
<path d="M16.0413 7.64919C19.4121 5.69932 23.3256 4.58334 27.4997 4.58334C40.1562 4.58334 50.4163 14.8435 50.4163 27.5C50.4163 40.1565 40.1562 50.4167 27.4997 50.4167C14.8431 50.4167 4.58301 40.1565 4.58301 27.5C4.58301 23.3259 5.69898 19.4124 7.64885 16.0417" stroke="white" stroke-width="3.4375" stroke-linecap="round"/>
<path d="M33.9815 43.7045C33.1303 45.8325 32.1198 47.5206 31.0076 48.6722C29.8955 49.8239 28.7035 50.4167 27.4997 50.4167C26.2959 50.4167 25.1039 49.8239 23.9917 48.6722C22.8796 47.5206 21.8691 45.8325 21.0179 43.7045C20.1667 41.5765 19.4914 39.0502 19.0308 36.2698C18.5701 33.4894 18.333 30.5095 18.333 27.5C18.333 24.4905 18.5701 21.5105 19.0308 18.7302C19.4914 15.9498 20.1667 13.4235 21.0179 11.2955C21.8691 9.16745 22.8796 7.47943 23.9917 6.32776C25.1039 5.17609 26.2959 4.58333 27.4997 4.58333C28.7035 4.58333 29.8955 5.17608 31.0076 6.32775C32.1198 7.47942 33.1303 9.16745 33.9815 11.2955C34.8327 13.4235 35.5079 15.9498 35.9686 18.7302C36.4292 21.5105 36.6663 24.4905 36.6663 27.5C36.6663 30.5095 36.4292 33.4894 35.9686 36.2698" stroke="white" stroke-width="3.4375" stroke-linecap="round"/>
<path d="M4.58301 27.5H22.9163M50.4163 27.5H32.083" stroke="white" stroke-width="3.4375" stroke-linecap="round"/>
</svg>
